# xmcd CD database file
#
# Track frame offsets:
#	150
#	1507
#	14370
#	33170
#	50477
#	73525
#	94425
#
# Disc length: 2025 seconds
#
# Revision: 0
# Processed by: cddbd v1.5PL3 Copyright (c) Steve Scherf et al.
# Submitted via: CDex 1.51
#
DISCID=4b07e707
DTITLE=Merry Go Round - -"S"-
DYEAR=1996
DGENRE=Rock
TTITLE0=メリーさん
TTITLE1=禁じられた遊び
TTITLE2=実験体
TTITLE3=ラ・リ・ル・レ・ロ
TTITLE4=YELLOW
TTITLE5=桜の満開の木の下で
TTITLE6=毒蟲
EXTD=YEAR: 1996
EXTT0=
EXTT1=
EXTT2=
EXTT3=
EXTT4=
EXTT5=
EXTT6=
PLAYORDER=
